<svg width="16" height="17" viewBox="0 0 16 17" fill="none" xmlns="http://www.w3.org/2000/svg">
<g clip-path="url(#clip0_963_210)">
<path d="M7.53125 2.54688H8.46875C8.55208 2.54688 8.59375 2.58854 8.59375 2.67188V13.6719C8.59375 13.7552 8.55208 13.7969 8.46875 13.7969H7.53125C7.44792 13.7969 7.40625 13.7552 7.40625 13.6719V2.67188C7.40625 2.58854 7.44792 2.54688 7.53125 2.54688Z" fill="white"/>
<path d="M2.75 7.57812H13.25C13.3333 7.57812 13.375 7.61979 13.375 7.70312V8.64062C13.375 8.72396 13.3333 8.76562 13.25 8.76562H2.75C2.66667 8.76562 2.625 8.72396 2.625 8.64062V7.70312C2.625 7.61979 2.66667 7.57812 2.75 7.57812Z" fill="white"/>
</g>
<defs>
<clipPath id="clip0_963_210">
<rect width="16" height="16" fill="white" transform="translate(0 0.171875)"/>
</clipPath>
</defs>
</svg>
