<svg width="17" height="17" viewBox="0 0 17 17" fill="none" xmlns="http://www.w3.org/2000/svg">
<g clip-path="url(#clip0_963_216)">
<path d="M2.84375 11.672V14.172H5.34375L12.7171 6.79871L10.2171 4.29871L2.84375 11.672ZM14.6504 3.92537L13.0904 2.36537C13.0287 2.30357 12.9555 2.25454 12.8748 2.22108C12.7942 2.18763 12.7077 2.17041 12.6204 2.17041C12.5331 2.17041 12.4466 2.18763 12.366 2.22108C12.2854 2.25454 12.2121 2.30357 12.1504 2.36537L10.9304 3.58537L13.4304 6.08537L14.6504 4.86537C14.7122 4.8037 14.7613 4.73044 14.7947 4.64979C14.8282 4.56914 14.8454 4.48269 14.8454 4.39537C14.8454 4.30806 14.8282 4.22161 14.7947 4.14096C14.7613 4.06031 14.7122 3.98705 14.6504 3.92537Z" fill="#93A2B1"/>
</g>
<defs>
<clipPath id="clip0_963_216">
<rect width="16" height="16" fill="white" transform="translate(0.84375 0.171875)"/>
</clipPath>
</defs>
</svg>
